<?xml version="1.0" encoding="UTF-8"?>
<svg width="138px" height="36px" viewBox="0 0 138 36" version="1.1" xmlns="http://www.w3.org/2000/svg" xmlns:xlink="http://www.w3.org/1999/xlink">
    <title>Centime_logo_1440_for_Home</title>
    <defs>
        <polygon id="path-1" points="0 0 17.6881197 0 17.6881197 19.8452834 0 19.8452834"></polygon>
        <polygon id="path-3" points="0 36 138 36 138 0 0 0"></polygon>
    </defs>
    <g id="Symbols" stroke="none" stroke-width="1" fill="none" fill-rule="evenodd">
        <g id="elements/header/1440" transform="translate(-85.000000, -20.000000)">
            <g id="Centime_logo_1440_for_Home" transform="translate(85.000000, 20.000000)">
                <g id="Group-48" transform="translate(0.000000, 16.154717)">
                    <mask id="mask-2" fill="white">
                        <use xlink:href="#path-1"></use>
                    </mask>
                    <g id="Clip-47"></g>
                    <path d="M9.9323871,19.8454378 C4.45558528,19.8454378 -0.00025762274,15.3943051 -0.00025762274,9.92297629 C-0.00025762274,4.4516475 4.45558528,0 9.9323871,0 C12.8468732,0 15.6034365,1.27189928 17.4951602,3.48987339 L15.2257615,5.42114256 C13.9015806,3.8687151 11.972244,2.97848855 9.9323871,2.97848855 C6.09947598,2.97848855 2.98095272,6.09338071 2.98095272,9.92297629 C2.98095272,13.7520571 6.09947598,16.8669493 9.9323871,16.8669493 C12.054168,16.8669493 14.0327106,15.9172714 15.3612711,14.2603536 L17.6881197,16.1226489 C15.7907282,18.4883506 12.9640915,19.8454378 9.9323871,19.8454378" id="Fill-46" fill="#009B9A" mask="url(#mask-2)"></path>
                </g>
                <path d="M34.2913642,24.825482 L23.3712515,24.825482 C23.8501722,21.5922018 26.0793818,19.3623889 28.8807714,19.3623889 C32.3527531,19.3623889 33.9386787,22.1275216 34.2913642,24.825482 M29.102327,16.5293118 C24.0253557,16.5293118 20.1965665,20.6821582 20.1965665,26.1897754 C20.1965665,31.6976501 24.1742616,35.8510112 29.4493448,35.8510112 C32.5668376,35.8510112 34.9158417,34.7829453 37.0657035,32.3873891 L37.2584053,32.1730038 L35.1667663,30.3014434 L34.9738069,30.5037325 C33.3804102,32.171717 31.6471244,32.9481881 29.5191606,32.9481881 C26.355811,32.9481881 23.9800141,30.7948127 23.5206727,27.5543262 L37.7071841,27.5543262 L37.7293397,27.2897547 C37.764634,26.8620136 37.764634,26.5791691 37.764634,26.3290101 C37.764634,20.4677729 34.2833779,16.5293118 29.102327,16.5293118" id="Fill-49" fill="#009B9A"></path>
                <path d="M50.6087506,16.5296721 C48.1546364,16.5296721 46.1866563,17.4896446 44.747318,19.3856547 L44.747318,16.9118595 L41.4948309,16.9118595 L41.4948309,35.433925 L44.747318,35.433925 L44.747318,24.8708813 C44.747318,21.7299952 46.8435942,19.5362134 49.8446415,19.5362134 C52.7753578,19.5362134 54.5248738,21.4522981 54.5248738,24.662158 L54.5248738,35.433925 L57.7776186,35.433925 L57.7776186,24.0035602 C57.7776186,19.4631217 54.9636054,16.5296721 50.6087506,16.5296721" id="Fill-51" fill="#009B9A"></path>
                <path d="M67.8852922,35.7552713 C68.7751211,35.7552713 69.7144136,35.6474353 70.9288472,35.4060266 L70.5802836,32.6210768 C69.9679144,32.7080663 69.5763278,32.7495021 69.0482012,32.7495021 C67.0091172,32.7495021 66.0590046,31.9570743 66.0590046,30.2558897 L66.0590046,19.9121212 L71.6040764,19.9121212 L71.6040764,16.9524203 L66.0590046,16.9524203 L66.0590046,13.0654323 L62.6929059,15.6789768 L62.6929059,29.8968651 C62.6929059,33.8389294 64.391155,35.7552713 67.8852922,35.7552713" id="Fill-53" fill="#009B9A"></path>
                <mask id="mask-4" fill="white">
                    <use xlink:href="#path-3"></use>
                </mask>
                <g id="Clip-56"></g>
                <polygon id="Fill-55" fill="#009B9A" mask="url(#mask-4)" points="75.6429311 35.4340537 78.8954182 35.4340537 78.8954182 16.9117309 75.6429311 16.9117309"></polygon>
                <path d="M105.446353,16.5296721 C102.804431,16.5296721 100.741131,17.6113784 99.1544325,19.8334704 C97.9497886,17.6978531 95.908386,16.5296721 93.3545718,16.5296721 C90.5704428,16.5296721 88.9396909,17.8991128 87.8406723,19.3210561 L87.8406723,16.9118595 L84.5874123,16.9118595 L84.5874123,35.433925 L87.8406723,35.433925 L87.8406723,24.9053682 C87.8406723,21.7940792 89.8233369,19.5362134 92.555426,19.5362134 C95.2684511,19.5362134 96.8883829,21.4268189 96.8883829,24.5939562 L96.8883829,35.433925 L100.105318,35.433925 L100.105318,24.80165 C100.105318,21.1643063 102.456126,19.5362134 104.786066,19.5362134 C107.561178,19.5362134 109.153802,21.4046855 109.153802,24.662158 L109.153802,35.433925 L112.406289,35.433925 L112.406289,24.0377898 C112.406289,19.4067587 109.739378,16.5296721 105.446353,16.5296721" id="Fill-57" fill="#009B9A" mask="url(#mask-4)"></path>
                <path d="M130.298188,24.825482 L119.378848,24.825482 C119.857511,21.5929739 122.08569,19.3623889 124.888368,19.3623889 C128.359577,19.3623889 129.945502,22.1275216 130.298188,24.825482 M124.958184,16.5293118 C119.880697,16.5293118 116.052166,20.6821582 116.052166,26.1897754 C116.052166,31.6976501 120.030118,35.8510112 125.305974,35.8510112 C128.423725,35.8510112 130.771441,34.7829453 132.921045,32.3873891 L133.113232,32.1730038 L131.022365,30.3014434 L130.829921,30.5037325 C129.236267,32.171717 127.502724,32.9481881 125.374244,32.9481881 C122.210637,32.9481881 119.835356,30.7948127 119.376272,27.5543262 L133.56201,27.5543262 L133.584166,27.2897547 C133.619975,26.8620136 133.619975,26.5791691 133.619975,26.3290101 C133.619975,20.4677729 130.139235,16.5293118 124.958184,16.5293118" id="Fill-58" fill="#009B9A" mask="url(#mask-4)"></path>
                <polygon id="Fill-59" fill="#009B9A" mask="url(#mask-4)" points="134.048582 17.435881 133.237586 17.435881 133.237586 17.0382516 135.310676 17.0382516 135.310676 17.435881 134.500453 17.435881 134.500453 19.427631 134.048582 19.427631"></polygon>
                <polygon id="Fill-60" fill="#009B9A" mask="url(#mask-4)" points="135.730138 17.0383031 136.149032 17.0383031 136.812926 18.1665926 137.464969 17.0383031 137.884894 17.0383031 137.999794 19.4276825 137.558744 19.4276825 137.479911 17.7725663 136.906185 18.7466939 136.693904 18.7466939 136.117345 17.7977881 136.038512 19.4276825 135.615495 19.4276825"></polygon>
                <polygon id="Fill-45" fill="#F6BD3E" mask="url(#mask-4)" points="82.8633752 2.57365294e-05 67.8212987 11.6916163 73.8782669 11.6916163 78.8954698 7.79253212 78.8954698 11.6916163 82.8633752 11.6916163"></polygon>
            </g>
        </g>
    </g>
</svg>